<?xml version="1.0" standalone="no"?>
<!DOCTYPE svg PUBLIC "-//W3C//DTD SVG 20010904//EN"
 "http://www.w3.org/TR/2001/REC-SVG-20010904/DTD/svg10.dtd">
<svg version="1.0" xmlns="http://www.w3.org/2000/svg"
 width="500.000000pt" height="500.000000pt" viewBox="0 0 500.000000 500.000000"
 preserveAspectRatio="xMidYMid meet">

<g transform="translate(0.000000,500.000000) scale(0.100000,-0.100000)"
fill="#000000" stroke="none">
<path d="M2701 3438 c-5 -13 -154 -367 -331 -788 -177 -421 -324 -773 -327
-782 -5 -16 5 -18 119 -18 l124 0 334 796 c184 438 337 800 338 805 2 5 -53 9
-122 9 -122 0 -127 -1 -135 -22z"/>
<path d="M1715 3055 c-181 -74 -381 -156 -443 -181 l-113 -47 3 -95 3 -96 255
-103 c140 -58 342 -139 448 -182 l192 -79 0 117 0 117 -257 99 c-142 54 -274
105 -293 113 l-35 14 70 28 c39 15 170 66 293 114 l222 88 0 114 c0 63 -3 114
-7 114 -5 -1 -156 -61 -338 -135z"/>
<path d="M2942 3074 l3 -116 287 -111 c158 -62 284 -115 280 -118 -4 -4 -134
-55 -289 -115 l-283 -108 0 -117 0 -116 448 181 447 182 3 96 c2 71 -1 97 -10
101 -474 193 -880 357 -884 357 -2 0 -3 -52 -2 -116z"/>
</g>
</svg>
